<svg width="50" height="50" viewBox="0 0 50 50" fill="none" xmlns="http://www.w3.org/2000/svg">
<g id="car-front-fill">
<g id="Subtract">
<path d="M7.8779 10.985C9.10899 8.11248 11.9335 6.25 15.0587 6.25H34.9413C38.0665 6.25 40.891 8.11248 42.1221 10.985L44.5968 16.7593C44.8318 17.3076 45.2535 17.7548 45.787 18.0216C47.3456 18.8009 48.4572 20.2562 48.7989 21.9649L49.8483 27.2117C49.9492 27.7162 50 28.2294 50 28.7439V30.0345C50 32.5782 48.7802 34.8556 46.875 36.2767V42.1875C46.875 43.0504 46.1754 43.75 45.3125 43.75H39.0625C38.1996 43.75 37.5 43.0504 37.5 42.1875V38.0062C33.4637 38.1562 28.9231 38.2812 25 38.2812C21.0769 38.2812 16.5363 38.1562 12.5 38.0062V42.1875C12.5 43.0504 11.8004 43.75 10.9375 43.75H4.6875C3.82456 43.75 3.125 43.0504 3.125 42.1875V36.2767C1.21978 34.8556 0 32.5782 0 30.0345V28.7439C0 28.2294 0.0508179 27.7162 0.151713 27.2117L1.20107 21.9649C1.54282 20.2562 2.65436 18.8009 4.213 18.0216C4.74653 17.7548 5.16824 17.3076 5.40321 16.7593L7.8779 10.985ZM9.375 31.25C11.1009 31.25 12.5 29.8509 12.5 28.125C12.5 26.3991 11.1009 25 9.375 25C7.64911 25 6.25 26.3991 6.25 28.125C6.25 29.8509 7.64911 31.25 9.375 31.25ZM40.625 31.25C42.3509 31.25 43.75 29.8509 43.75 28.125C43.75 26.3991 42.3509 25 40.625 25C38.8991 25 37.5 26.3991 37.5 28.125C37.5 29.8509 38.8991 31.25 40.625 31.25ZM18.75 25C17.0241 25 15.625 26.3991 15.625 28.125C15.625 29.8509 17.0241 31.25 18.75 31.25H31.25C32.9759 31.25 34.375 29.8509 34.375 28.125C34.375 26.3991 32.9759 25 31.25 25H18.75ZM9.08026 16.2144C8.52993 17.315 9.40918 18.5998 10.6358 18.5011C13.4752 18.2724 21.1037 17.9688 25 17.9688C28.8962 17.9688 36.5247 18.2724 39.3642 18.5011C40.5907 18.5998 41.47 17.315 40.9197 16.2144L37.9318 10.2387C37.6671 9.70938 37.1261 9.375 36.5343 9.375H13.4656C12.8738 9.375 12.3328 9.70938 12.0681 10.2387L9.08026 16.2144Z" fill="black"/>
</g>
</g>
</svg>
