<svg width="50" height="50" viewBox="0 0 50 50" fill="none" xmlns="http://www.w3.org/2000/svg">
<g id="cup-straw">
<path id="Ellipse 173 (Stroke)" d="M43.4421 1.04512C43.7625 1.84634 43.3728 2.75567 42.5716 3.07616L35.5251 5.89475L34.2768 11.9143C35.4504 12.2114 36.5082 12.588 37.3127 13.0635C38.0262 13.4852 39.0625 14.3001 39.0625 15.625C39.0625 15.7689 39.0503 15.9068 39.0276 16.0388L36.0236 44.3758C35.9134 45.4224 35.4303 46.5541 34.3845 47.2827C32.8599 48.3448 29.7168 50 24.9788 50C20.2409 50 17.0978 48.3448 15.5731 47.2827C14.5274 46.5541 14.0443 45.4224 13.9341 44.3758L10.9724 16.0387C10.9497 15.9068 10.9375 15.7689 10.9375 15.625C10.9375 14.3001 11.9738 13.4852 12.6873 13.0635C13.5053 12.58 14.585 12.1988 15.7822 11.8995C18.2007 11.2949 21.4589 10.9375 25 10.9375C27.2261 10.9375 29.3404 11.0787 31.2045 11.3338L32.6535 4.41146C32.7655 3.90751 33.1192 3.4914 33.5985 3.29967L41.411 0.174671C42.2122 -0.145819 43.1216 0.243893 43.4421 1.04512ZM30.5241 14.3959C28.8887 14.1849 27.0107 14.0625 25 14.0625C21.6375 14.0625 18.6458 14.4048 16.5401 14.9312C15.6456 15.1548 14.9726 15.3967 14.5152 15.625C14.9726 15.8533 15.6456 16.0953 16.5401 16.3189C18.6458 16.8453 21.6375 17.1875 25 17.1875C26.7843 17.1875 28.4642 17.0912 29.9627 16.9221L30.5241 14.3959ZM31.4364 19.8837C29.5165 20.1593 27.3189 20.3125 25 20.3125C21.4589 20.3125 18.2007 19.9552 15.7822 19.3506C15.3072 19.2318 14.8506 19.1002 14.4216 18.9543L17.0419 44.0487C17.0816 44.4258 17.2306 44.6288 17.3595 44.7186C18.4763 45.4967 21.0082 46.875 24.9788 46.875C28.9495 46.875 31.4814 45.4967 32.5982 44.7186C32.7271 44.6288 32.876 44.4258 32.9157 44.0487L35.5784 18.9543C35.1494 19.1002 34.6928 19.2318 34.2178 19.3506C33.4034 19.5542 32.4939 19.7297 31.5104 19.873C31.4858 19.8772 31.4612 19.8808 31.4364 19.8837ZM13.9608 15.2634C13.9608 15.2634 13.9677 15.2694 13.9764 15.2821C13.9644 15.2698 13.9608 15.2634 13.9608 15.2634ZM36.0392 15.2634C36.0392 15.2634 36.0356 15.2698 36.0236 15.2821C36.0323 15.2694 36.0392 15.2634 36.0392 15.2634ZM35.4848 15.625C35.0513 15.4087 34.4242 15.1801 33.5985 14.9664L33.2886 16.3608C33.3464 16.347 33.4034 16.333 33.4599 16.3189C34.3544 16.0953 35.0274 15.8533 35.4848 15.625Z" fill="#331800"/>
</g>
</svg>
