<svg width="50" height="50" viewBox="0 0 50 50" fill="none" xmlns="http://www.w3.org/2000/svg">
<g id="house-heart">
<g id="Union">
<path d="M25 21.8179C30.2012 16.5906 43.2042 25.7384 25 37.4998C6.79578 25.7384 19.7988 16.5906 25 21.8179Z" fill="black"/>
<path d="M27.2097 4.68726C25.9893 3.46688 24.0107 3.46687 22.7903 4.68726L2.02015 25.4574C1.40995 26.0676 1.40995 27.0569 2.02015 27.6671C2.63034 28.2773 3.61966 28.2773 4.22985 27.6671L6.25 25.647V42.1873C6.25 44.7761 8.34867 46.8748 10.9375 46.8748H39.0625C41.6513 46.8748 43.75 44.7761 43.75 42.1873V25.647L45.7701 27.6671C46.3803 28.2773 47.3697 28.2773 47.9799 27.6671C48.59 27.0569 48.59 26.0676 47.9799 25.4574L40.625 18.1026V7.81226C40.625 6.94932 39.9254 6.24976 39.0625 6.24976H35.9375C35.0746 6.24976 34.375 6.94932 34.375 7.81226V11.8526L27.2097 4.68726ZM40.625 22.522V42.1873C40.625 43.0502 39.9254 43.7498 39.0625 43.7498H10.9375C10.0746 43.7498 9.375 43.0502 9.375 42.1873V22.522L25 6.89697L40.625 22.522Z" fill="black"/>
</g>
</g>
</svg>
