<svg width="20" height="21" viewBox="0 0 20 21" fill="none" xmlns="http://www.w3.org/2000/svg">
<g id="Group 34">
<path id="Vector" d="M10.0501 0.499637C7.39796 0.486376 4.84915 1.52723 2.96441 3.39321C1.07967 5.2592 0.013386 7.79747 0.000125174 10.4496C-0.0131357 13.1018 1.02771 15.6506 2.8937 17.5354C4.75969 19.4201 7.29796 20.4864 9.95012 20.4996C11.2633 20.5062 12.565 20.254 13.7808 19.7576C14.9965 19.2611 16.1026 18.53 17.0358 17.6061C17.9691 16.6821 18.7112 15.5834 19.2198 14.3727C19.7284 13.1619 19.9936 11.8629 20.0001 10.5496C20.0067 9.23642 19.7545 7.93477 19.2581 6.719C18.7616 5.50323 18.0305 4.39715 17.1065 3.46392C16.1826 2.5307 15.0839 1.78859 13.8732 1.27998C12.6624 0.771362 11.3633 0.506203 10.0501 0.499637ZM16.1231 13.2016C16.1259 13.6503 16.0396 14.095 15.8693 14.51C15.6989 14.9251 15.4478 15.3022 15.1306 15.6194C14.8134 15.9367 14.4364 16.1879 14.0214 16.3584C13.6065 16.5289 13.1618 16.6153 12.7131 16.6126H7.38913C6.94049 16.6154 6.49577 16.5291 6.08073 16.3588C5.6657 16.1884 5.28861 15.9373 4.97133 15.6201C4.65404 15.303 4.40287 14.9259 4.23238 14.511C4.06189 14.096 3.97547 13.6513 3.97813 13.2026V7.87764C3.97534 7.429 4.06163 6.98428 4.232 6.56924C4.40237 6.15421 4.65343 5.77712 4.97062 5.45984C5.28781 5.14255 5.66482 4.89139 6.07981 4.72089C6.49479 4.5504 6.93949 4.46398 7.38812 4.46664H12.7131C13.1617 4.46398 13.6063 4.55037 14.0212 4.7208C14.4361 4.89123 14.8131 5.14231 15.1303 5.45949C15.4475 5.77666 15.6985 6.15363 15.869 6.56855C16.0394 6.98347 16.1258 7.42809 16.1231 7.87664V13.2016Z" fill="black"/>
<path id="Vector_2" d="M11.6099 10.7428C11.6038 11.0596 11.5039 11.3674 11.3227 11.6274C11.1415 11.8873 10.8872 12.0875 10.592 12.2028C10.2969 12.318 9.97416 12.343 9.66479 12.2746C9.35541 12.2062 9.07331 12.0475 8.85424 11.8186C8.63517 11.5897 8.48899 11.3009 8.43423 10.9888C8.37948 10.6767 8.41861 10.3554 8.54667 10.0656C8.67473 9.77581 8.88595 9.53055 9.15356 9.36092C9.42117 9.19129 9.73312 9.10493 10.0499 9.1128C10.4708 9.12839 10.8691 9.30729 11.1603 9.61158C11.4515 9.91587 11.6128 10.3216 11.6099 10.7428Z" fill="black"/>
<path id="Vector_3" d="M12.7635 5.73291H7.33845C6.80166 5.73291 6.28684 5.94615 5.90727 6.32573C5.5277 6.7053 5.31445 7.22011 5.31445 7.75691V13.3039C5.31445 13.5697 5.36681 13.8329 5.46852 14.0785C5.57024 14.324 5.71932 14.5471 5.90727 14.7351C6.09521 14.923 6.31834 15.0721 6.5639 15.1738C6.80946 15.2756 7.07266 15.3279 7.33845 15.3279H12.7635C13.0292 15.3279 13.2924 15.2756 13.538 15.1738C13.7836 15.0721 14.0067 14.923 14.1946 14.7351C14.3826 14.5471 14.5317 14.324 14.6334 14.0785C14.7351 13.8329 14.7875 13.5697 14.7875 13.3039V7.76691C14.7885 7.50035 14.7369 7.2362 14.6357 6.9896C14.5345 6.743 14.3856 6.5188 14.1976 6.32985C14.0096 6.14089 13.7861 5.9909 13.54 5.88847C13.2939 5.78603 13.03 5.73317 12.7635 5.73291ZM10.0505 13.4559C9.51342 13.468 8.98495 13.3199 8.53249 13.0303C8.08004 12.7408 7.72411 12.323 7.51014 11.8303C7.29617 11.3376 7.23386 10.7923 7.33117 10.264C7.42847 9.73569 7.68098 9.24837 8.05646 8.86423C8.43193 8.48008 8.91336 8.21652 9.43928 8.10718C9.96521 7.99785 10.5118 8.04769 11.0093 8.25036C11.5067 8.45303 11.9325 8.79933 12.2323 9.24506C12.5321 9.69079 12.6923 10.2157 12.6925 10.7529C12.6968 11.104 12.6319 11.4524 12.5014 11.7784C12.3709 12.1043 12.1775 12.4013 11.9321 12.6524C11.6867 12.9034 11.3941 13.1036 11.0713 13.2415C10.7484 13.3794 10.4015 13.4523 10.0505 13.4559ZM12.9865 8.05091C12.9205 8.05092 12.8551 8.03777 12.7943 8.01222C12.7335 7.98667 12.6783 7.94924 12.6321 7.90212C12.586 7.855 12.5496 7.79913 12.5253 7.73779C12.501 7.67646 12.4891 7.61088 12.4905 7.54491C12.4905 7.41071 12.5438 7.28201 12.6387 7.18711C12.7336 7.09222 12.8623 7.03891 12.9965 7.03891C13.1307 7.03891 13.2594 7.09222 13.3542 7.18711C13.4491 7.28201 13.5025 7.41071 13.5025 7.54491C13.5044 7.61635 13.491 7.68737 13.463 7.75311C13.4349 7.81886 13.3931 7.87778 13.3402 7.92583C13.2873 7.97388 13.2246 8.00994 13.1565 8.03153C13.0884 8.05311 13.0164 8.05973 12.9455 8.05091H12.9865Z" fill="black"/>
</g>
</svg>
