<svg width="50" height="50" viewBox="0 0 50 50" fill="none" xmlns="http://www.w3.org/2000/svg">
<path id="Union" d="M25 0C11.1929 0 0 11.1929 0 25C0 38.8071 11.1929 50 25 50C38.8071 50 50 38.8071 50 25C50 11.1929 38.8071 0 25 0ZM6.37632 13.5193C7.39216 17.6714 14.287 21.4542 17.9891 23.4852C19.4911 24.3093 20.4675 24.845 20.3125 25C20.0603 25.2522 19.8053 25.4949 19.5555 25.7327C18.2575 26.9683 17.0983 28.0718 17.1875 29.6875C17.297 31.6699 19.1181 32.2614 20.9819 32.8668C22.7859 33.4528 24.6299 34.0517 25 35.9375C25.256 37.242 24.7671 39.0254 24.3116 40.6867C23.6412 43.1318 23.0434 45.3125 25 45.3125C29.6875 43.75 36.87 35.3575 37.5 29.6875C37.9315 25.8043 31.25 23.4375 26.5625 21.875C25.0688 21.3771 24.2015 22.1284 23.4678 22.7639C22.9299 23.2299 22.4637 23.6337 21.875 23.4375C20.4834 22.9737 14.0625 17.1875 17.1875 15.625C19.6274 14.4051 20.1623 15.0901 21.0233 16.1928C21.265 16.5025 21.5325 16.845 21.875 17.1875C23.7765 18.1383 23.9425 16.7749 24.133 15.2096C24.2555 14.2025 24.3883 13.1118 25 12.5C26.3551 11.145 28.9525 10.0274 31.3365 9.00159C33.5634 8.04344 35.604 7.16543 36.2718 6.24888C42.6255 10.0764 46.875 17.042 46.875 25C46.875 37.0812 37.0812 46.875 25 46.875C12.9188 46.875 3.125 37.0812 3.125 25C3.125 20.7893 4.31471 16.8564 6.37632 13.5193Z" fill="#331800"/>
</svg>
